<svg xmlns="http://www.w3.org/2000/svg" xmlns:xlink="http://www.w3.org/1999/xlink" xmlns:lucid="lucid" width="3676.8" height="2582.4"><g transform="translate(1806.3999999999999 0)" lucid:page-tab-id="0_0"><path d="M60 740h40v60H60z" stroke="#000" stroke-opacity="0" stroke-width="2" fill="#fff" fill-opacity="0"/><use xlink:href="#a" transform="matrix(1,0,0,1,65,745) translate(10.592592592592592 30.333333333333336)"/><path d="M100 740h40v60h-40z" stroke="#000" stroke-opacity="0" stroke-width="2" fill="#fff" fill-opacity="0"/><use xlink:href="#b" transform="matrix(1,0,0,1,105,745) translate(6.8888888888888875 30.333333333333336)"/><path d="M140 740h40v60h-40z" stroke="#000" stroke-opacity="0" stroke-width="2" fill="#fff" fill-opacity="0"/><use xlink:href="#c" transform="matrix(1,0,0,1,145,745) translate(7.592592592592592 30.333333333333336)"/><path d="M220 740h40v60h-40z" stroke="#000" stroke-opacity="0" stroke-width="2" fill="#fff" fill-opacity="0"/><use xlink:href="#d" transform="matrix(1,0,0,1,225,745) translate(7.592592592592592 30.333333333333336)"/><path d="M260 740h40v60h-40z" stroke="#000" stroke-opacity="0" stroke-width="2" fill="#fff" fill-opacity="0"/><use xlink:href="#e" transform="matrix(1,0,0,1,265,745) translate(7.592592592592592 30.333333333333336)"/><path d="M300 740h40v60h-40z" stroke="#000" stroke-opacity="0" stroke-width="2" fill="#fff" fill-opacity="0"/><use xlink:href="#a" transform="matrix(1,0,0,1,305,745) translate(10.592592592592592 30.333333333333336)"/><path d="M60 580h40v120H60z" stroke="#000" stroke-width="2" fill="#5abaa7" fill-opacity=".83"/><use xlink:href="#f" transform="matrix(1,0,0,1,65,585) translate(3 58.6)"/><path d="M80 740v-20.76" stroke="#000" stroke-width="2" fill="none"/><path d="M81 740h-2 2zM84.64 718.5h-9.28L80 704.24z"/><path d="M86 719.5H74l6-18.5zm-9.26-2h6.52L80 707.47z"/><path d="M100 580h40v120h-40z" stroke="#000" stroke-width="2" fill="#5abaa7" fill-opacity=".83"/><use xlink:href="#g" transform="matrix(1,0,0,1,105,585) translate(0.5 58.6)"/><path d="M140 580h40v120h-40z" stroke="#000" stroke-width="2" fill="#5abaa7" fill-opacity=".83"/><use xlink:href="#h" transform="matrix(1,0,0,1,145,585) translate(0.5 58.6)"/><path d="M120 740v-20.76" stroke="#000" stroke-width="2" fill="none"/><path d="M121 740h-2 2zM124.64 718.5h-9.28l4.64-14.26z"/><path d="M126 719.5h-12l6-18.5zm-9.26-2h6.52L120 707.47z"/><path d="M160 740v-20.76" stroke="#000" stroke-width="2" fill="none"/><path d="M161 740h-2 2zM164.64 718.5h-9.28l4.64-14.26z"/><path d="M166 719.5h-12l6-18.5zm-9.26-2h6.52L160 707.47z"/><path d="M220 580h40v120h-40z" stroke="#000" stroke-width="2" fill="#5abaa7" fill-opacity=".83"/><use xlink:href="#i" transform="matrix(1,0,0,1,225,585) translate(1 58.6)"/><path d="M240 740v-20.76" stroke="#000" stroke-width="2" fill="none"/><path d="M241 740h-2 2zM244.64 718.5h-9.28l4.64-14.26z"/><path d="M246 719.5h-12l6-18.5zm-9.26-2h6.52L240 707.47z"/><path d="M260 580h40v120h-40z" stroke="#000" stroke-width="2" fill="#5abaa7" fill-opacity=".83"/><use xlink:href="#j" transform="matrix(1,0,0,1,265,585) translate(0.5 58.6)"/><path d="M280 740v-20.76" stroke="#000" stroke-width="2" fill="none"/><path d="M281 740h-2 2zM284.64 718.5h-9.28l4.64-14.26z"/><path d="M286 719.5h-12l6-18.5zm-9.26-2h6.52L280 707.47z"/><path d="M300 580h40v120h-40z" stroke="#000" stroke-width="2" fill="#5abaa7" fill-opacity=".83"/><use xlink:href="#f" transform="matrix(1,0,0,1,305,585) translate(3 58.6)"/><path d="M320 740v-20.76" stroke="#000" stroke-width="2" fill="none"/><path d="M321 740h-2 2zM324.64 718.5h-9.28l4.64-14.26z"/><path d="M326 719.5h-12l6-18.5zm-9.26-2h6.52L320 707.47z"/><path d="M340 740h160v60H340z" stroke="#000" stroke-opacity="0" stroke-width="2" fill="#fff" fill-opacity="0"/><use xlink:href="#k" transform="matrix(1,0,0,1,345,745) translate(63.888888888888886 30.333333333333336)"/><path d="M60 860h120v120H60z" stroke="#000" stroke-width="2" fill="#fcc438" fill-opacity=".51"/><use xlink:href="#l" transform="matrix(1,0,0,1,65,865) translate(31.025 58.6)"/><path d="M120 800v40.76" stroke="#000" stroke-width="2" fill="none"/><path d="M121 800h-2 2zM120 855.76l-4.64-14.26h9.28z"/><path d="M120 859l-6-18.5h12zm-3.26-16.5l3.26 10.03 3.26-10.03z"/><path d="M280 800v40.76" stroke="#000" stroke-width="2" fill="none"/><path d="M281 800h-2 2zM280 855.76l-4.64-14.26h9.28z"/><path d="M280 859l-6-18.5h12zm-3.26-16.5l3.26 10.03 3.26-10.03z"/><path d="M316 460c13.25 0 24 17.9 24 40s-10.75 40-24 40h-72c-13.25 0-24-17.9-24-40s10.75-40 24-40z" stroke="#000" stroke-width="2" fill="#0c7cba" fill-opacity=".5"/><use xlink:href="#m" transform="matrix(1,0,0,1,225,465) translate(2.6000000000000014 38.6)"/><use xlink:href="#n" transform="matrix(1,0,0,1,225,465) translate(77.4 38.6)"/><path d="M156 460c13.25 0 24 17.9 24 40s-10.75 40-24 40H84c-13.25 0-24-17.9-24-40s10.75-40 24-40z" stroke="#000" stroke-width="2" fill="#0c7cba" fill-opacity=".5"/><use xlink:href="#m" transform="matrix(1,0,0,1,65,465) translate(2.6000000000000014 38.6)"/><use xlink:href="#n" transform="matrix(1,0,0,1,65,465) translate(77.4 38.6)"/><path d="M120 579v-19.76" stroke="#000" stroke-width="2" fill="none"/><path d="M121 580h-2v-1h2zM124.64 558.5h-9.28l4.64-14.26z"/><path d="M126 559.5h-12l6-18.5zm-9.26-2h6.52L120 547.47z"/><path d="M160 579l-.1-1.6-.28-1.5-.46-1.4-.67-1.43-.94-1.47-1.3-1.6-1.97-1.85-3.28-2.36-9.4-5.02-11.3-5.87" stroke="#000" stroke-width="2" fill="none"/><path d="M161.8 580h-2.36l-.3-.47 1.7-1.06zM134.15 552.3l-7.44 5.52-4.77-14.22z"/><path d="M135.85 552.28l-9.65 7.16L120 541zm-8.63 3.9l5.23-3.87-8.6-6.1z"/><path d="M80 579l.1-1.6.28-1.48.45-1.4.66-1.42.92-1.47 1.3-1.6 1.94-1.82 3.2-2.33 8.48-4.58 12.42-6.4" stroke="#000" stroke-width="2" fill="none"/><path d="M80.85 579.53l-.3.47H78.2l.95-1.53zM113.37 557.8l-7.43-5.53 12.23-8.67z"/><path d="M113.88 559.43l-9.65-7.18L120.1 541zm-6.24-7.14l5.22 3.88 3.38-10z"/><path d="M240 579l.1-1.63.3-1.5.46-1.45.68-1.43.95-1.5 1.35-1.63 2.03-1.9 3.43-2.44 19.87-10.95" stroke="#000" stroke-width="2" fill="none"/><path d="M240.85 579.53l-.3.47h-2.35l.95-1.53zM272.64 557.67L265.3 552l12.4-8.44z"/><path d="M273.1 559.3l-9.5-7.36L279.7 541zm-6.1-7.25l5.16 4 3.57-9.93z"/><path d="M280 579v-19.76" stroke="#000" stroke-width="2" fill="none"/><path d="M281 580h-2v-1h2zM284.64 558.5h-9.28l4.64-14.26z"/><path d="M286 559.5h-12l6-18.5zm-9.26-2h6.52L280 547.47z"/><path d="M320 579l-.1-1.6-.28-1.5-.46-1.4-.67-1.43-.94-1.47-1.3-1.6-1.97-1.85-3.28-2.36-9.4-5.02-11.3-5.87" stroke="#000" stroke-width="2" fill="none"/><path d="M321.8 580h-2.36l-.3-.47 1.7-1.06zM294.15 552.3l-7.44 5.52-4.77-14.22z"/><path d="M295.85 552.28l-9.65 7.16L280 541zm-8.63 3.9l5.23-3.87-8.6-6.1z"/><path d="M60 980h120v120H60z" stroke="#000" stroke-width="2" fill="#fff"/><use xlink:href="#o" transform="matrix(1,0,0,1,65,985) translate(28 58.6)"/><path d="M220 980h120v120H220z" stroke="#000" stroke-width="2" fill="#fff"/><use xlink:href="#p" transform="matrix(1,0,0,1,225,985) translate(28.5 58.6)"/><path d="M290 430c0 5.52-4.48 10-10 10s-10-4.48-10-10 4.48-10 10-10 10 4.48 10 10zm-17.07-7.07l14.14 14.14m-14.14 0l14.14-14.14M130 430c0 5.52-4.48 10-10 10s-10-4.48-10-10 4.48-10 10-10 10 4.48 10 10zm-17.07-7.07l14.14 14.14m-14.14 0l14.14-14.14" stroke="#000" stroke-width="2" fill="#fff"/><path d="M59 500l-1.63-.06-1.33-.14-1.1-.2-.95-.24-.82-.27-.7-.3-.63-.3-.56-.34-.5-.34-.45-.37-.4-.38-.4-.4-.34-.43-.3-.46-.3-.5-.26-.53-.24-.58-.22-.64-.18-.7-.14-.82-.1-.9-.03-1.05.04-1.23.16-1.46.32-1.75.55-2.1.88-2.63 1.35-3.26 2.03-4 2.9-4.87 3.93-5.64 4.9-6.07 5.5-5.92 5.67-5.25 5.38-4.34 4.88-3.37 4.3-2.56 1.37-.68" stroke="#000" stroke-width="2" fill="none"/><path d="M60.03 499.5l-.03.5.07 1.9-1.62-1.07 1.1-1.66zM105.88 430.88L93.4 439.2l-2.5-8.93z"/><path d="M109 430l-16.2 10.8-3.25-11.58zm-15 7.6l8.76-5.85-10.54-.42z"/><path d="M181 500l1.63-.06 1.33-.14 1.1-.2.95-.24.82-.27.7-.3.63-.3.56-.34.5-.34.45-.37.4-.38.4-.4.34-.43.3-.46.3-.5.26-.53.24-.58.22-.64.18-.7.14-.82.1-.9.03-1.05-.04-1.23-.16-1.46-.32-1.75-.55-2.1-.88-2.63-1.35-3.26-2.03-4-2.9-4.87-3.93-5.64-4.9-6.07-5.5-5.92-5.67-5.25-5.38-4.34-4.88-3.37-4.3-2.56-1.37-.68" stroke="#000" stroke-width="2" fill="none"/><path d="M181.55 500.83l-1.67 1.1.12-1.93-.02-.52.47-.3zM146.6 439.2l-12.48-8.32 15-.6z"/><path d="M147.2 440.8L131 430l19.45-.78zm-9.96-9.05l8.77 5.85 1.78-6.27z"/><path d="M219 500l-1.63-.06-1.33-.14-1.1-.2-.95-.24-.82-.27-.7-.3-.63-.3-.56-.34-.5-.34-.45-.37-.4-.38-.4-.4-.34-.43-.3-.46-.3-.5-.26-.53-.24-.58-.22-.64-.18-.7-.14-.82-.1-.9-.03-1.05.04-1.23.16-1.46.32-1.75.55-2.1.88-2.63 1.35-3.26 2.03-4 2.9-4.87 3.93-5.64 4.9-6.07 5.5-5.92 5.67-5.25 5.38-4.34 4.88-3.37 4.3-2.56 1.37-.68" stroke="#000" stroke-width="2" fill="none"/><path d="M220.03 499.5l-.03.5.07 1.9-1.62-1.07 1.1-1.66zM265.88 430.88l-12.48 8.32-2.5-8.93z"/><path d="M269 430l-16.2 10.8-3.25-11.58zm-15 7.6l8.76-5.85-10.54-.42z"/><path d="M341 500l1.63-.06 1.33-.14 1.1-.2.95-.24.82-.27.7-.3.63-.3.56-.34.5-.34.45-.37.4-.38.4-.4.34-.43.3-.46.3-.5.26-.53.24-.58.22-.64.18-.7.14-.82.1-.9.03-1.05-.04-1.23-.16-1.46-.32-1.75-.55-2.1-.88-2.63-1.35-3.26-2.03-4-2.9-4.87-3.93-5.64-4.9-6.07-5.5-5.92-5.67-5.25-5.38-4.34-4.88-3.37-4.3-2.56-1.37-.68" stroke="#000" stroke-width="2" fill="none"/><path d="M341.55 500.83l-1.67 1.1.12-1.93-.02-.52.47-.3zM306.6 439.2l-12.48-8.32 15-.6z"/><path d="M307.2 440.8L291 430l19.45-.78zm-9.96-9.05l8.77 5.85 1.78-6.27z"/><path d="M280 419l.12-6.06.3-5 .45-4.16.52-3.52.56-3 .6-2.6.63-2.24.63-1.97.65-1.74.64-1.52.65-1.38.64-1.23.65-1.1.63-1 .64-.92.63-.83.63-.76.62-.7.63-.64.63-.6.63-.53.63-.5.64-.48.64-.43.67-.4.67-.37.67-.34.7-.32.72-.28.73-.25.75-.23.78-.2.8-.17.84-.14.87-.1.9-.08.97-.04h1.02l1.06.05 1.15.1 1.23.15 1.3.22 1.42.3 1.53.4 1.67.5 1.82.63 2 .8 2.22.98 2.46 1.24 2.76 1.52 3.1 1.9 3.53 2.33 4 2.9 4.58 3.64 5.26 4.54 6.02 5.67 6.92 7.07 7.88 8.77 8.9 10.75 9.84 12.98L396.42 456l11.2 17.65 11.37 19.7 11.12 21.32 10.53 22.37 9.6 22.86 8.5 22.86 7.3 22.46 6.1 21.8.92 3.63 4.95 21.8 4.2 22.87 3.3 23.68 2.38 24.23 1.36 24.4.33 24.23-.67 23.64-1.6 22.7-2.4 21.47-3.1 20.04-3.66 18.5-4.08 16.88-4.4 15.33-4.6 13.84-4.72 12.43-4.78 11.15-4.8 10-4.75 8.96-4.7 8.03-4.66 7.2-4.57 6.48-4.48 5.83-4.4 5.25-4.32 4.73-4.25 4.27-4.17 3.87-4.1 3.5-4.05 3.16-4 2.87-3.96 2.6-3.94 2.33-3.9 2.1-3.9 1.9-3.88 1.7-3.88 1.5-3.9 1.33-3.92 1.17-3.96.98-3.98.82" stroke="#000" stroke-width="2" fill="none"/><path d="M281 419.04l-.06 1.08-.94-.12-1.07.14.07-1.2zM358.85 1043.05l-14.63-3.34 13.8-5.88z"/><path d="M359.97 1044.33L341 1040l17.9-7.65zm-12.52-4.9l10.28 2.34-.6-6.5z"/><path d="M120 419l-.12-6.04-.3-5-.45-4.2-.53-3.57-.58-3.07-.62-2.64-.64-2.32-.66-2.02-.66-1.8-.67-1.58-.67-1.42-.67-1.28-.66-1.15-.67-1.05-.66-.95-.66-.87-.66-.8-.66-.73-.66-.68-.66-.62-.66-.57-.68-.53-.67-.5-.7-.45-.68-.42-.7-.4-.73-.35-.74-.32-.75-.3-.78-.27-.8-.23-.83-.2-.86-.2-.9-.14-.93-.12-.98-.07-1.03-.05h-1.1l-1.14.05-1.22.1-1.3.17-1.42.24-1.52.32-1.64.42-1.78.54-1.96.68-2.15.86-2.38 1.05-2.64 1.33-2.95 1.62-3.3 2-3.75 2.5-4.24 3.08-4.82 3.83-5.5 4.75-6.26 5.9-7.1 7.26-8.02 8.9-8.92 10.8-9.76 12.88-10.43 15.02-10.83 17.08-10.9 18.9-10.63 20.33-10.03 21.3-9.16 21.8-8.15 21.9-7.03 21.65-5.9 21.16-.9 3.55-4.86 21.36-4.13 22.55-3.3 23.56-2.37 24.3-1.37 24.67-.34 24.65.68 24.2 1.63 23.38 2.5 22.2 3.2 20.76 3.8 19.18 4.24 17.52 4.56 15.9 4.76 14.3 4.86 12.85 4.93 11.5 4.9 10.3 4.9 9.17 4.8 8.2 4.74 7.35 4.64 6.58 4.54 5.9 4.45 5.3 4.36 4.78 4.27 4.3 4.2 3.88 4.1 3.5 4.05 3.16 4 2.86 3.93 2.57 3.9 2.33 3.87 2.1 3.85 1.87 3.83 1.67 3.83 1.48 3.84 1.3 3.85 1.14 3.88.97 3.44.7" stroke="#000" stroke-width="2" fill="none"/><path d="M121.07 420.14L120 420l-.94.12-.06-1.08 2-.1zM55.78 1039.7l-14.64 3.3.86-9.24z"/><path d="M59 1040l-18.98 4.27 1.1-11.97zm-16.73 1.72l10.3-2.32-9.7-4.17z"/><path d="M284 1160c30.93 0 56 26.86 56 60s-25.07 60-56 60H116c-30.93 0-56-26.86-56-60s25.07-60 56-60z" stroke="#000" stroke-width="2" fill="#c92d39" fill-opacity=".5"/><use xlink:href="#m" transform="matrix(1,0,0,1,65,1165) translate(82.6 58.6)"/><use xlink:href="#n" transform="matrix(1,0,0,1,65,1165) translate(157.39999999999998 58.6)"/><path d="M120 1101l.03.97.1.93.13.9.2.9.25.87.33.88.38.9.46.88.55.93.65.95.77 1 .93 1.07 1.13 1.14 1.4 1.24 1.74 1.37 2.27 1.56 3.05 1.83 4.44 2.27 7.62 3.33 34.8 13.53 4.43 2.28 3.06 1.84 2.2 1.5" stroke="#000" stroke-width="2" fill="none"/><path d="M120.9 1100.55l-1.8.9-.73-1.45h2.24zM198.32 1156.24l-11.38-9.78 7.92-4.82z"/><path d="M200 1159l-14.75-12.68 10.27-6.25zm-11.36-12.4l8 6.87-2.43-10.26z"/><path d="M280 1101l-.03.97-.1.93-.13.9-.2.9-.25.87-.33.88-.38.9-.46.88-.55.93-.65.95-.77 1-.93 1.07-1.13 1.14-1.4 1.24-1.74 1.37-2.27 1.56-3.05 1.83-4.44 2.27-7.62 3.33-34.8 13.53-4.43 2.28-3.06 1.84-2.2 1.5" stroke="#000" stroke-width="2" fill="none"/><path d="M280.9 1101.45l-1.8-.9.3-.55h2.23zM213.06 1146.46l-11.38 9.78 3.46-14.6z"/><path d="M214.75 1146.32L200 1159l4.48-18.93zm-11.4 7.15l8-6.87-5.56-3.4z"/><path d="M220 1343.2c0 11.05-8.95 20-20 20s-20-8.95-20-20 8.95-20 20-20 20 8.95 20 20zm-34.14-14.14l28.28 28.28m-28.28 0l28.28-28.28" stroke="#000" stroke-width="2" fill="#fff"/><path d="M341 1220l2.23.05 1.9.1 1.63.2 1.43.2 1.24.23 1.1.26 1 .28.87.28.8.3.72.3.65.3.6.32.55.32.5.32.47.32.43.33.4.34.37.34.36.35.32.35.3.35.3.37.27.37.26.4.25.38.22.4.2.43.2.44.18.45.17.47.15.5.13.52.12.55.1.6.08.6.05.67.03.7v.77l-.03.83-.08.9-.12.97-.18 1.07-.26 1.2-.32 1.3-.45 1.48-.58 1.65-.74 1.88-.94 2.14-1.22 2.46-1.56 2.82-2 3.28-2.52 3.8-3.22 4.43-4.05 5.1-5.03 5.82-6.1 6.5-7.18 7-8.1 7.3-8.74 7.22-9 6.82-8.86 6.16-8.48 5.4-7.9 4.54-7.2 3.8-6.56 3.07-5.9 2.48-5.32 1.98-4.78 1.56-4.3 1.2-.83.2" stroke="#000" stroke-width="2" fill="none"/><path d="M341.2 1219.02l-.4 1.96-.83-.17.03-.8-.04-1.24zM238.96 1345.47l-14.75-2.7 13.53-6.5z"/><path d="M240.14 1346.7l-19.14-3.5 17.54-8.4zm-12.72-4.36l10.37 1.9-.88-6.46z"/><path d="M59 1220l-2.23.05-1.9.1-1.63.2-1.43.2-1.24.23-1.1.26-1 .28-.87.28-.8.3-.72.3-.65.3-.6.32-.55.32-.5.32-.47.32-.43.33-.4.34-.37.34-.36.35-.32.35-.3.35-.3.37-.27.37-.26.4-.25.38-.22.4-.2.43-.2.44-.18.45-.17.47-.15.5-.13.52-.12.55-.1.6-.08.6-.05.67-.03.7v.77l.03.83.08.9.12.97.18 1.07.26 1.2.32 1.3.45 1.48.58 1.65.74 1.88.94 2.14 1.22 2.46 1.56 2.82 2 3.28 2.52 3.8 3.22 4.43 4.05 5.1 5.03 5.82 6.1 6.5 7.18 7 8.1 7.3 8.74 7.22 9 6.82 8.86 6.16 8.48 5.4 7.9 4.54 7.2 3.8 6.56 3.07 5.9 2.48 5.32 1.98 4.78 1.56 4.3 1.2.83.2" stroke="#000" stroke-width="2" fill="none"/><path d="M60 1220l.03.8-.83.18-.4-1.96 1.25-.26zM175.8 1342.77l-14.76 2.7 1.23-9.2z"/><path d="M179 1343.2l-19.14 3.5 1.6-11.9zm-16.8 1.04l10.38-1.9-9.5-4.56z"/><path d="M688 923.33c17.67 0 32 17.9 32 40s-14.33 40-32 40h-96c-17.67 0-32-17.9-32-40s14.33-40 32-40z" stroke="#000" stroke-width="2" fill="#f9d2de"/><use xlink:href="#q" transform="matrix(1,0,0,1,564.9999999435742,928.3333333333333) translate(12.349999999999994 38.6)"/><use xlink:href="#r" transform="matrix(1,0,0,1,564.9999999435742,928.3333333333333) translate(41.25 38.6)"/><use xlink:href="#s" transform="matrix(1,0,0,1,564.9999999435742,928.3333333333333) translate(76.25 38.6)"/><use xlink:href="#t" transform="matrix(1,0,0,1,564.9999999435742,928.3333333333333) translate(91.75 38.6)"/><path d="M688 653.33c17.67 0 32 17.9 32 40s-14.33 40-32 40h-96c-17.67 0-32-17.9-32-40s14.33-40 32-40z" stroke="#000" stroke-width="2" fill="#b391b5"/><use xlink:href="#q" transform="matrix(1,0,0,1,564.9999999435742,658.3333333333334) translate(12.349999999999994 38.6)"/><use xlink:href="#r" transform="matrix(1,0,0,1,564.9999999435742,658.3333333333334) translate(41.25 38.6)"/><use xlink:href="#s" transform="matrix(1,0,0,1,564.9999999435742,658.3333333333334) translate(76.25 38.6)"/><use xlink:href="#t" transform="matrix(1,0,0,1,564.9999999435742,658.3333333333334) translate(91.75 38.6)"/><path d="M688 805c17.67 0 32 10.45 32 23.33 0 12.9-14.33 23.34-32 23.34h-96c-17.67 0-32-10.45-32-23.34 0-12.88 14.33-23.33 32-23.33z" stroke="#000" stroke-width="2" fill-opacity="0"/><use xlink:href="#u" transform="matrix(1,0,0,1,564.9999999435742,810) translate(28.049999999999997 22.1)"/><use xlink:href="#v" transform="matrix(1,0,0,1,564.9999999435742,810) translate(96.95 22.1)"/><path d="M640 804v-51.43" stroke="#000" stroke-width="2" fill="none"/><path d="M641 805h-2v-1h2zM644.64 751.84h-9.28l4.64-14.27z"/><path d="M646 752.84h-12l6-18.5zm-9.26-2h6.52L640 740.8z"/><path d="M688 533.33c17.67 0 32 10.45 32 23.34 0 12.88-14.33 23.33-32 23.33h-96c-17.67 0-32-10.45-32-23.33 0-12.9 14.33-23.34 32-23.34z" stroke="#000" stroke-width="2" fill-opacity="0"/><use xlink:href="#u" transform="matrix(1,0,0,1,564.9999999435742,538.3333333333334) translate(28.049999999999997 22.1)"/><use xlink:href="#v" transform="matrix(1,0,0,1,564.9999999435742,538.3333333333334) translate(96.95 22.1)"/><path d="M640 652.33v-53.1" stroke="#000" stroke-width="2" fill="none"/><path d="M641 653.33h-2v-1h2zM644.64 598.5h-9.28l4.64-14.26z"/><path d="M646 599.5h-12l6-18.5zm-9.26-2h6.52L640 587.47z"/><path d="M640 922.33V870.9" stroke="#000" stroke-width="2" fill="none"/><path d="M641 923.33h-2v-1h2zM644.64 870.17h-9.28L640 855.9z"/><path d="M646 871.17h-12l6-18.5zm-9.26-2h6.52L640 859.14z"/><path d="M688 1075c17.67 0 32 10.45 32 23.33 0 12.9-14.33 23.34-32 23.34h-96c-17.67 0-32-10.45-32-23.34 0-12.88 14.33-23.33 32-23.33z" stroke="#000" stroke-width="2" fill-opacity="0"/><use xlink:href="#u" transform="matrix(1,0,0,1,564.9999999435742,1079.9999999999998) translate(28.049999999999997 22.1)"/><use xlink:href="#v" transform="matrix(1,0,0,1,564.9999999435742,1079.9999999999998) translate(96.95 22.1)"/><path d="M200 1364.2l.06 2.92.15 2.44.23 2.08.26 1.8.3 1.55.3 1.37.35 1.22.36 1.08.37.98.38.9.38.8.4.75.38.7.42.63.4.6.43.54.42.52.44.47.45.46.46.43.48.4.5.4.5.36.52.35.54.33.57.3.6.3.64.28.66.27.7.24.76.22.8.2.9.2.94.16 1.04.13 1.14.1 1.28.05h1.43l1.6-.06 1.88-.17 2.2-.28 2.6-.45 3.22-.68 4.1-1.06 5.57-1.7 8.55-2.98 72.3-28.36 9.87-3 62.26-17.95 11.58-4.1 16.95-6.86 36.38-16.14 91.24-41.6 15.12-7.97 10.16-5.94 7.7-4.93 6.17-4.34 5.18-3.98 4.44-3.7 3.9-3.56 3.47-3.44 3.14-3.38 2.88-3.35 2.63-3.38 2.46-3.4 2.3-3.5 2.14-3.58 2.03-3.74 1.9-3.9 1.83-4.16 1.73-4.44 1.63-4.8 1.56-5.25 1.44-5.8 1.35-6.55 1.22-7.5 1.05-8.75.82-10.52v-.64" stroke="#000" stroke-width="2" fill="none"/><path d="M200 1363.2l.86-.03.13.9-2 .27-.17-1.3zM644.16 1140.3l-9.26-.26 5-14.14z"/><path d="M645.5 1141.32l-12-.32 6.5-18.33zm-9.2-2.24l6.52.17-3-10.1z"/><path d="M640 1074v-51.43" stroke="#000" stroke-width="2" fill="none"/><path d="M641 1075h-2v-1h2zM644.64 1021.84h-9.28l4.64-14.27z"/><path d="M646 1022.84h-12l6-18.5zm-9.26-2h6.52L640 1010.8z"/><path d="M688 380c17.67 0 32 17.9 32 40s-14.33 40-32 40h-96c-17.67 0-32-17.9-32-40s14.33-40 32-40z" stroke="#000" stroke-width="2" fill="#de5f85" fill-opacity=".83"/><g><use xlink:href="#q" transform="matrix(1,0,0,1,564.9999999435742,385) translate(12.324999999999996 38.6)"/><use xlink:href="#w" transform="matrix(1,0,0,1,564.9999999435742,385) translate(41.224999999999994 38.6)"/><use xlink:href="#s" transform="matrix(1,0,0,1,564.9999999435742,385) translate(56.225 38.6)"/><use xlink:href="#x" transform="matrix(1,0,0,1,564.9999999435742,385) translate(71.725 38.6)"/></g><path d="M640 532.33v-53.1" stroke="#000" stroke-width="2" fill="none"/><path d="M641 533.33h-2v-1h2zM644.64 478.5h-9.28l4.64-14.26z"/><path d="M646 479.5h-12l6-18.5zm-9.26-2h6.52L640 467.47z"/><path d="M220 860h120v120H220z" stroke="#000" stroke-width="2" fill="#fcc438" fill-opacity=".51"/><g><use xlink:href="#y" transform="matrix(1,0,0,1,225,865) translate(31.525 58.6)"/></g><defs><path d="M115-3C79 11 28 4 28-45v-112H4v-33h27l15-45h31v45h36v33H77v99c-1 23 16 31 38 25v30" id="z"/><use transform="matrix(0.07407407407407408,0,0,0.07407407407407408,0,0)" xlink:href="#z" id="a"/><path d="M114-157C55-157 80-60 75 0H25v-261h50l-1 109c12-26 28-41 61-42 86-1 58 113 63 194h-50c-7-57 23-157-34-157" id="A"/><use transform="matrix(0.07407407407407408,0,0,0.07407407407407408,0,0)" xlink:href="#A" id="b"/><path d="M185-48c-13 30-37 53-82 52C43 2 14-33 14-96s30-98 90-98c62 0 83 45 84 108H66c0 31 8 55 39 56 18 0 30-7 34-22zm-45-69c5-46-57-63-70-21-2 6-4 13-4 21h74" id="B"/><use transform="matrix(0.07407407407407408,0,0,0.07407407407407408,0,0)" xlink:href="#B" id="c"/><path d="M190-63c-7 42-38 67-86 67-59 0-84-38-90-98-12-110 154-137 174-36l-49 2c-2-19-15-32-35-32-30 0-35 28-38 64-6 74 65 87 74 30" id="C"/><use transform="matrix(0.07407407407407408,0,0,0.07407407407407408,0,0)" xlink:href="#C" id="d"/><path d="M133-34C117-15 103 5 69 4 32 3 11-16 11-54c-1-60 55-63 116-61 1-26-3-47-28-47-18 1-26 9-28 27l-52-2c7-38 36-58 82-57s74 22 75 68l1 82c-1 14 12 18 25 15v27c-30 8-71 5-69-32zm-48 3c29 0 43-24 42-57-32 0-66-3-65 30 0 17 8 27 23 27" id="D"/><use transform="matrix(0.07407407407407408,0,0,0.07407407407407408,0,0)" xlink:href="#D" id="e"/><path d="M141 0L90-78 38 0H4l68-98-65-92h35l48 74 47-74h35l-64 92 68 98h-35" id="E"/><path d="M-5 72V49h209v23H-5" id="F"/><path d="M59-47c-2 24 18 29 38 22v24C64 9 27 4 27-40v-127H5v-23h24l9-43h21v43h35v23H59v120" id="G"/><g id="f"><use transform="matrix(0.05,0,0,0.05,0,0)" xlink:href="#E"/><use transform="matrix(0.05,0,0,0.05,9,0)" xlink:href="#F"/><use transform="matrix(0.05,0,0,0.05,19,0)" xlink:href="#G"/></g><path d="M106-169C34-169 62-67 57 0H25v-261h32l-1 103c12-21 28-36 61-36 89 0 53 116 60 194h-32v-121c2-32-8-49-39-48" id="H"/><g id="g"><use transform="matrix(0.05,0,0,0.05,0,0)" xlink:href="#E"/><use transform="matrix(0.05,0,0,0.05,9,0)" xlink:href="#F"/><use transform="matrix(0.05,0,0,0.05,19,0)" xlink:href="#H"/></g><path d="M100-194c63 0 86 42 84 106H49c0 40 14 67 53 68 26 1 43-12 49-29l28 8c-11 28-37 45-77 45C44 4 14-33 15-96c1-61 26-98 85-98zm52 81c6-60-76-77-97-28-3 7-6 17-6 28h103" id="I"/><g id="h"><use transform="matrix(0.05,0,0,0.05,0,0)" xlink:href="#E"/><use transform="matrix(0.05,0,0,0.05,9,0)" xlink:href="#F"/><use transform="matrix(0.05,0,0,0.05,19,0)" xlink:href="#I"/></g><path d="M96-169c-40 0-48 33-48 73s9 75 48 75c24 0 41-14 43-38l32 2c-6 37-31 61-74 61-59 0-76-41-82-99-10-93 101-131 147-64 4 7 5 14 7 22l-32 3c-4-21-16-35-41-35" id="J"/><g id="i"><use transform="matrix(0.05,0,0,0.05,0,0)" xlink:href="#E"/><use transform="matrix(0.05,0,0,0.05,9,0)" xlink:href="#F"/><use transform="matrix(0.05,0,0,0.05,19,0)" xlink:href="#J"/></g><path d="M141-36C126-15 110 5 73 4 37 3 15-17 15-53c-1-64 63-63 125-63 3-35-9-54-41-54-24 1-41 7-42 31l-33-3c5-37 33-52 76-52 45 0 72 20 72 64v82c-1 20 7 32 28 27v20c-31 9-61-2-59-35zM48-53c0 20 12 33 32 33 41-3 63-29 60-74-43 2-92-5-92 41" id="K"/><g id="j"><use transform="matrix(0.05,0,0,0.05,0,0)" xlink:href="#E"/><use transform="matrix(0.05,0,0,0.05,9,0)" xlink:href="#F"/><use transform="matrix(0.05,0,0,0.05,19,0)" xlink:href="#K"/></g><path d="M24 0v-54h51V0H24" id="L"/><g id="k"><use transform="matrix(0.07407407407407408,0,0,0.07407407407407408,0,0)" xlink:href="#L"/><use transform="matrix(0.07407407407407408,0,0,0.07407407407407408,7.407407407407408,0)" xlink:href="#L"/><use transform="matrix(0.07407407407407408,0,0,0.07407407407407408,14.814814814814817,0)" xlink:href="#L"/></g><path d="M206 0h-36l-40-164L89 0H53L-1-190h32L70-26l43-164h34l41 164 42-164h31" id="M"/><g id="l"><use transform="matrix(0.05,0,0,0.05,0,0)" xlink:href="#M"/><use transform="matrix(0.05,0,0,0.05,12.950000000000001,0)" xlink:href="#F"/><use transform="matrix(0.05,0,0,0.05,22.950000000000003,0)" xlink:href="#G"/><use transform="matrix(0.05,0,0,0.05,27.950000000000003,0)" xlink:href="#H"/><use transform="matrix(0.05,0,0,0.05,37.95,0)" xlink:href="#I"/></g><path d="M160-131c35 5 61 23 61 61C221 17 115-2 30 0v-248c76 3 177-17 177 60 0 33-19 50-47 57zm-97-11c50-1 110 9 110-42 0-47-63-36-110-37v79zm0 115c55-2 124 14 124-45 0-56-70-42-124-44v89" id="N"/><path d="M24-231v-30h32v30H24zM24 0v-190h32V0H24" id="O"/><path d="M16-82v-28h88v28H16" id="P"/><path d="M30 0v-248h33v221h125V0H30" id="Q"/><path d="M185-189c-5-48-123-54-124 2 14 75 158 14 163 119 3 78-121 87-175 55-17-10-28-26-33-46l33-7c5 56 141 63 141-1 0-78-155-14-162-118-5-82 145-84 179-34 5 7 8 16 11 25" id="R"/><path d="M127-220V0H93v-220H8v-28h204v28h-85" id="S"/><path d="M240 0l2-218c-23 76-54 145-80 218h-23L58-218 59 0H30v-248h44l77 211c21-75 51-140 76-211h43V0h-30" id="T"/><g id="m"><use transform="matrix(0.05,0,0,0.05,0,0)" xlink:href="#N"/><use transform="matrix(0.05,0,0,0.05,12,0)" xlink:href="#O"/><use transform="matrix(0.05,0,0,0.05,15.949999999999998,0)" xlink:href="#P"/><use transform="matrix(0.05,0,0,0.05,21.9,0)" xlink:href="#Q"/><use transform="matrix(0.05,0,0,0.05,31.899999999999995,0)" xlink:href="#R"/><use transform="matrix(0.05,0,0,0.05,43.9,0)" xlink:href="#S"/><use transform="matrix(0.05,0,0,0.05,54.85,0)" xlink:href="#T"/></g><path d="M27 0v-27h64v-190l-56 39v-29l58-41h29v221h61V0H27" id="U"/><path d="M101-251c82-7 93 87 43 132L82-64C71-53 59-42 53-27h129V0H18c2-99 128-94 128-182 0-28-16-43-45-43s-46 15-49 41l-32-3c6-41 34-60 81-64" id="V"/><path d="M134-131c28 9 52 24 51 62-1 50-34 73-85 73S17-19 16-69c0-36 21-54 49-61-75-25-45-126 34-121 46 3 78 18 79 63 0 33-17 51-44 57zm-34-11c31 1 46-15 46-44 0-28-17-43-47-42-29 0-46 13-45 42 1 28 16 44 46 44zm1 122c35 0 51-18 51-52 0-30-18-46-53-46-33 0-51 17-51 47 0 34 19 51 53 51" id="W"/><g id="n"><use transform="matrix(0.05,0,0,0.05,0,0)" xlink:href="#U"/><use transform="matrix(0.05,0,0,0.05,10,0)" xlink:href="#V"/><use transform="matrix(0.05,0,0,0.05,20,0)" xlink:href="#W"/></g><g id="o"><use transform="matrix(0.05,0,0,0.05,0,0)" xlink:href="#J"/><use transform="matrix(0.05,0,0,0.05,9,0)" xlink:href="#I"/><use transform="matrix(0.05,0,0,0.05,19,0)" xlink:href="#F"/><use transform="matrix(0.05,0,0,0.05,29,0)" xlink:href="#G"/><use transform="matrix(0.05,0,0,0.05,34,0)" xlink:href="#H"/><use transform="matrix(0.05,0,0,0.05,44,0)" xlink:href="#I"/></g><g id="p"><use transform="matrix(0.05,0,0,0.05,0,0)" xlink:href="#J"/><use transform="matrix(0.05,0,0,0.05,9,0)" xlink:href="#I"/><use transform="matrix(0.05,0,0,0.05,19,0)" xlink:href="#F"/><use transform="matrix(0.05,0,0,0.05,29,0)" xlink:href="#J"/><use transform="matrix(0.05,0,0,0.05,38,0)" xlink:href="#K"/><use transform="matrix(0.05,0,0,0.05,48,0)" xlink:href="#G"/></g><path d="M63-220v92h138v28H63V0H30v-248h175v28H63" id="X"/><path d="M212-179c-10-28-35-45-73-45-59 0-87 40-87 99 0 60 29 101 89 101 43 0 62-24 78-52l27 14C228-24 195 4 139 4 59 4 22-46 18-125c-6-104 99-153 187-111 19 9 31 26 39 46" id="Y"/><g id="q"><use transform="matrix(0.05,0,0,0.05,0,0)" xlink:href="#X"/><use transform="matrix(0.05,0,0,0.05,10.950000000000001,0)" xlink:href="#Y"/></g><path d="M54-142c48-35 137-8 131 61C196 18 31 33 14-55l32-4c7 23 22 37 52 37 35-1 51-22 54-58 4-55-73-65-99-34H22l8-134h141v27H59" id="Z"/><path d="M110-160c48 1 74 30 74 79 0 53-28 85-80 85-65 0-83-55-86-122-5-90 50-162 133-122 14 7 22 21 27 39l-31 6c-5-40-67-38-82-6-9 19-15 44-15 74 11-20 30-34 60-33zm-7 138c34 0 49-23 49-58s-16-56-50-56c-29 0-50 16-49 49 1 36 15 65 50 65" id="aa"/><g id="r"><use transform="matrix(0.05,0,0,0.05,0,0)" xlink:href="#V"/><use transform="matrix(0.05,0,0,0.05,10,0)" xlink:href="#Z"/><use transform="matrix(0.05,0,0,0.05,20,0)" xlink:href="#aa"/></g><path d="M118-107v75H92v-75H18v-26h74v-75h26v75h74v26h-74" id="ab"/><use transform="matrix(0.05,0,0,0.05,0,0)" xlink:href="#ab" id="s"/><path d="M233-177c-1 41-23 64-60 70L243 0h-38l-65-103H63V0H30v-248c88 3 205-21 203 71zM63-129c60-2 137 13 137-47 0-61-80-42-137-45v92" id="ac"/><path d="M232-93c-1 65-40 97-104 97C67 4 28-28 28-90v-158h33c8 89-33 224 67 224 102 0 64-133 71-224h33v155" id="ad"/><g id="t"><use transform="matrix(0.05,0,0,0.05,0,0)" xlink:href="#ac"/><use transform="matrix(0.05,0,0,0.05,12.950000000000001,0)" xlink:href="#I"/><use transform="matrix(0.05,0,0,0.05,22.950000000000003,0)" xlink:href="#Q"/><use transform="matrix(0.05,0,0,0.05,32.95,0)" xlink:href="#ad"/></g><path d="M30-248c118-7 216 8 213 122C240-48 200 0 122 0H30v-248zM63-27c89 8 146-16 146-99s-60-101-146-95v194" id="ae"/><path d="M114-163C36-179 61-72 57 0H25l-1-190h30c1 12-1 29 2 39 6-27 23-49 58-41v29" id="af"/><path d="M100-194c62-1 85 37 85 99 1 63-27 99-86 99S16-35 15-95c0-66 28-99 85-99zM99-20c44 1 53-31 53-75 0-43-8-75-51-75s-53 32-53 75 10 74 51 75" id="ag"/><path d="M115-194c55 1 70 41 70 98S169 2 115 4C84 4 66-9 55-30l1 105H24l-1-265h31l2 30c10-21 28-34 59-34zm-8 174c40 0 45-34 45-75s-6-73-45-74c-42 0-51 32-51 76 0 43 10 73 51 73" id="ah"/><path d="M84 4C-5 8 30-112 23-190h32v120c0 31 7 50 39 49 72-2 45-101 50-169h31l1 190h-30c-1-10 1-25-2-33-11 22-28 36-60 37" id="ai"/><g id="u"><use transform="matrix(0.05,0,0,0.05,0,0)" xlink:href="#ae"/><use transform="matrix(0.05,0,0,0.05,12.950000000000001,0)" xlink:href="#af"/><use transform="matrix(0.05,0,0,0.05,18.900000000000002,0)" xlink:href="#ag"/><use transform="matrix(0.05,0,0,0.05,28.900000000000002,0)" xlink:href="#ah"/><use transform="matrix(0.05,0,0,0.05,38.900000000000006,0)" xlink:href="#ag"/><use transform="matrix(0.05,0,0,0.05,48.900000000000006,0)" xlink:href="#ai"/><use transform="matrix(0.05,0,0,0.05,58.900000000000006,0)" xlink:href="#G"/></g><path d="M101-251c68 0 85 55 85 127S166 4 100 4C33 4 14-52 14-124c0-73 17-127 87-127zm-1 229c47 0 54-49 54-102s-4-102-53-102c-51 0-55 48-55 102 0 53 5 102 54 102" id="aj"/><path d="M33 0v-38h34V0H33" id="ak"/><g id="v"><use transform="matrix(0.05,0,0,0.05,0,0)" xlink:href="#aj"/><use transform="matrix(0.05,0,0,0.05,10,0)" xlink:href="#ak"/><use transform="matrix(0.05,0,0,0.05,15,0)" xlink:href="#Z"/></g><use transform="matrix(0.05,0,0,0.05,0,0)" xlink:href="#V" id="w"/><path d="M101-234c-31-9-42 10-38 44h38v23H63V0H32v-167H5v-23h27c-7-52 17-82 69-68v24" id="al"/><path d="M210-169c-67 3-38 105-44 169h-31v-121c0-29-5-50-35-48C34-165 62-65 56 0H25l-1-190h30c1 10-1 24 2 32 10-44 99-50 107 0 11-21 27-35 58-36 85-2 47 119 55 194h-31v-121c0-29-5-49-35-48" id="am"/><g id="x"><use transform="matrix(0.05,0,0,0.05,0,0)" xlink:href="#R"/><use transform="matrix(0.05,0,0,0.05,12,0)" xlink:href="#ag"/><use transform="matrix(0.05,0,0,0.05,22,0)" xlink:href="#al"/><use transform="matrix(0.05,0,0,0.05,27,0)" xlink:href="#G"/><use transform="matrix(0.05,0,0,0.05,32,0)" xlink:href="#am"/><use transform="matrix(0.05,0,0,0.05,46.95,0)" xlink:href="#K"/><use transform="matrix(0.05,0,0,0.05,56.95,0)" xlink:href="#E"/></g><g id="y"><use transform="matrix(0.05,0,0,0.05,0,0)" xlink:href="#M"/><use transform="matrix(0.05,0,0,0.05,12.950000000000001,0)" xlink:href="#F"/><use transform="matrix(0.05,0,0,0.05,22.950000000000003,0)" xlink:href="#J"/><use transform="matrix(0.05,0,0,0.05,31.950000000000003,0)" xlink:href="#K"/><use transform="matrix(0.05,0,0,0.05,41.95,0)" xlink:href="#G"/></g></defs></g></svg>